HIERARCHY
ROOT Hips
{
	OFFSET 0.000000 0.000000 0.000000
	CHANNELS 6 Xposition Yposition Zposition Xrotation Yrotation Zrotation
	JOINT LeftUpLeg_virtual
	{
		OFFSET 0.000000 0.000000 0.000000
		CHANNELS 3 Xrotation Yrotation Zrotation
		JOINT LeftUpLeg
		{
			OFFSET 10.205400 -3.823500 0.155100
			CHANNELS 3 Xrotation Yrotation Zrotation
			JOINT LeftLeg
			{
				OFFSET 0.708757 -12.982077 0.567790
				CHANNELS 3 Xrotation Yrotation Zrotation
				JOINT LeftFoot
				{
					OFFSET -0.708756 -10.717838 -2.184338
					CHANNELS 3 Xrotation Yrotation Zrotation
					JOINT LeftToeBase
					{
						OFFSET 0.108149 -7.191104 7.560241
						CHANNELS 3 Xrotation Yrotation Zrotation
						JOINT LeftToe_End
						{
							OFFSET 0.070230 0.081724 4.490308
							CHANNELS 3 Xrotation Yrotation Zrotation
							End Site
							{
								OFFSET 0 0 0
							}
						}
					}
				}
			}
		}
	}
	JOINT RightUpLeg_virtual
	{
		OFFSET 0.000000 0.000000 0.000000
		CHANNELS 3 Xrotation Yrotation Zrotation
		JOINT RightUpLeg
		{
			OFFSET -10.205400 -3.823500 0.005500
			CHANNELS 3 Xrotation Yrotation Zrotation
			JOINT RightLeg
			{
				OFFSET -0.708756 -12.982134 0.610632
				CHANNELS 3 Xrotation Yrotation Zrotation
				JOINT RightFoot
				{
					OFFSET 0.708754 -10.717769 -1.945823
					CHANNELS 3 Xrotation Yrotation Zrotation
					JOINT RightToeBase
					{
						OFFSET -0.108140 -7.191069 7.372968
						CHANNELS 3 Xrotation Yrotation Zrotation
						JOINT RightToe_End
						{
							OFFSET -0.070227 0.081735 4.479403
							CHANNELS 3 Xrotation Yrotation Zrotation
							End Site
							{
								OFFSET 0 0 0
							}
						}
					}
				}
			}
		}
	}
	JOINT Spine_virtual
	{
		OFFSET 0.000000 0.000000 0.000000
		CHANNELS 3 Xrotation Yrotation Zrotation
		JOINT Spine
		{
			OFFSET 0.000000 6.876099 0.125700
			CHANNELS 3 Xrotation Yrotation Zrotation
			JOINT Spine1
			{
				OFFSET 0.000000 5.730043 0.104720
				CHANNELS 3 Xrotation Yrotation Zrotation
				JOINT Spine1_split
				{
					OFFSET 0.000000 5.730043 0.104720
					CHANNELS 3 Xrotation Yrotation Zrotation
					JOINT Spine2
					{
						OFFSET 0.000000 5.730043 0.104720
						CHANNELS 3 Xrotation Yrotation Zrotation
						JOINT Neck_virtual
						{
							OFFSET 0.000000 0.000000 0.000000
							CHANNELS 3 Xrotation Yrotation Zrotation
							JOINT Neck
							{
								OFFSET 0.000000 10.314075 0.188496
								CHANNELS 3 Xrotation Yrotation Zrotation
								JOINT Head
								{
									OFFSET 0.000000 7.643700 -2.377400
									CHANNELS 3 Xrotation Yrotation Zrotation
									JOINT HeadTop_End
									{
										OFFSET 0.000000 43.788605 -13.619600
										CHANNELS 3 Xrotation Yrotation Zrotation
										End Site
										{
											OFFSET 0 0 0
										}
									}
								}
							}
						}
						JOINT LeftShoulder_virtual
						{
							OFFSET 0.000000 0.000000 0.000000
							CHANNELS 3 Xrotation Yrotation Zrotation
							JOINT LeftShoulder
							{
								OFFSET 2.196100 4.412489 0.087492
								CHANNELS 3 Xrotation Yrotation Zrotation
								JOINT LeftShoulder_split
								{
									OFFSET 2.196100 4.412489 0.087492
									CHANNELS 3 Xrotation Yrotation Zrotation
									JOINT LeftArm
									{
										OFFSET 8.771219 -2.981674 -0.026999
										CHANNELS 3 Xrotation Yrotation Zrotation
										JOINT LeftForeArm
										{
											OFFSET 8.512804 0.000000 -0.000000
											CHANNELS 3 Xrotation Yrotation Zrotation
											JOINT LeftHand
											{
												OFFSET 18.484802 0.000000 -0.000000
												CHANNELS 3 Xrotation Yrotation Zrotation
												End Site
												{
													OFFSET 0 0 0
												}
											}
										}
									}
								}
							}
						}
						JOINT RightShoulder_virtual
						{
							OFFSET 0.000000 0.000000 0.000000
							CHANNELS 3 Xrotation Yrotation Zrotation
							JOINT RightShoulder
							{
								OFFSET -2.196100 4.412496 0.070690
								CHANNELS 3 Xrotation Yrotation Zrotation
								JOINT RightShoulder_split
								{
									OFFSET -2.196100 4.412496 0.070690
									CHANNELS 3 Xrotation Yrotation Zrotation
									JOINT RightArm
									{
										OFFSET -8.771282 -2.981682 -0.094208
										CHANNELS 3 Xrotation Yrotation Zrotation
										JOINT RightForeArm
										{
											OFFSET -8.494598 0.000000 0.000000
											CHANNELS 3 Xrotation Yrotation Zrotation
											JOINT RightHand
											{
												OFFSET -18.483803 0.000000 0.000001
												CHANNELS 3 Xrotation Yrotation Zrotation
												End Site
												{
													OFFSET 0 0 0
												}
											}
										}
									}
								}
							}
						}
					}
				}
			}
		}
	}
}
MOTION
Frames: 5
Frame Time: 0.03333333
-3.050256 26.792957 3.818995 0.000000 0.000000 0.000000 7.173931 -59.179614 -0.275018 -57.787362 -25.396131 40.065937 45.035023 -14.725965 -1.940234 19.794078 0.841855 -15.053850 0.000006 0.000014 -0.000003 0.000000 0.000000 0.000000 7.173931 -59.179614 -0.275018 -43.707559 2.857300 -28.115936 67.698793 12.993671 2.036695 -16.728689 -6.044397 18.231814 -10.352723 0.000079 0.000024 0.000000 0.000000 0.000000 7.173931 -59.179614 -0.275018 4.785435 10.899102 1.094406 6.079592 5.798305 -0.521029 0.000000 0.000000 0.000000 0.000000 0.000000 0.000000 5.085126 16.136085 1.189171 6.289639 5.421252 -4.908950 -11.393628 17.889739 5.359092 0.000000 0.000000 0.000000 5.085126 16.136085 1.189171 3.544250 4.756005 -11.622993 0.000000 0.000000 0.000000 -54.038848 -33.116439 -50.381535 -0.000035 -81.882357 -0.000059 0.000000 0.000000 0.000000 5.085126 16.136085 1.189171 -14.733703 2.115980 -4.463083 0.000000 0.000000 0.000000 -107.662455 41.165984 127.346487 0.000004 29.080733 -0.000012 0.000000 0.000000 0.000000 
-3.347889 28.600281 -0.522449 0.000000 0.000000 0.000000 11.036372 -61.371770 2.571500 -63.718206 -22.193639 30.792566 62.457278 -9.123801 -1.062748 3.397283 1.567495 -13.103983 -0.790465 0.000014 -0.000003 0.000000 0.000000 0.000000 11.036372 -61.371770 2.571500 -50.814425 -4.137748 -15.552496 63.673175 6.641048 0.923416 -7.541582 -2.050072 12.647930 -9.252100 0.000025 -0.000001 0.000000 0.000000 0.000000 11.036372 -61.371770 2.571500 5.011380 10.610766 1.472528 6.308405 5.733788 0.124733 0.000000 0.000000 0.000000 0.000000 0.000000 0.000000 5.204269 16.033849 1.859610 6.010201 5.497593 -4.746235 -12.496670 18.583681 4.459506 0.000000 0.000000 0.000000 5.204269 16.033849 1.859610 3.342827 3.885598 -11.068047 0.000000 0.000000 0.000000 -52.875814 -31.812415 -49.380591 -0.000071 -83.745359 -0.000141 0.000000 0.000000 0.000000 5.204269 16.033849 1.859610 -14.973889 4.793945 -4.441336 0.000000 0.000000 0.000000 -102.180757 44.066782 122.304318 -0.000005 35.490039 0.000002 0.000000 0.000000 0.000000 
-3.885601 30.301197 -5.092257 0.000000 0.000000 0.000000 18.150101 -64.997897 9.183595 -68.016554 -13.947479 22.272543 69.552930 -7.455529 -0.561012 -3.879708 2.094586 -14.194462 -0.224702 -0.000016 0.000001 0.000000 0.000000 0.000000 18.150101 -64.997897 9.183595 -53.290891 -8.864418 -6.519196 55.041780 5.578120 0.585050 -3.004743 -0.560598 23.013650 -5.515034 0.012543 -0.901711 0.000000 0.000000 0.000000 18.150101 -64.997897 9.183595 5.002555 10.570659 0.593398 6.102148 6.417211 0.514766 0.000000 0.000000 0.000000 0.000000 0.000000 0.000000 4.918149 16.654300 2.295241 5.970358 5.433346 -4.378253 -13.661108 18.875854 3.950040 0.000000 0.000000 0.000000 4.918149 16.654300 2.295241 3.417883 3.714090 -11.398250 0.000000 0.000000 0.000000 -50.782344 -31.863591 -46.590267 0.000063 -85.111643 0.000045 0.000000 0.000000 0.000000 4.918149 16.654300 2.295241 -15.100655 8.148907 -3.712563 0.000000 0.000000 0.000000 -96.287151 45.640321 117.417208 0.000023 39.987530 -0.000020 0.000000 0.000000 0.000000 
-4.335417 31.406811 -9.424587 0.000000 0.000000 0.000000 25.548584 -69.062993 16.325351 -70.850590 -2.711250 15.551909 68.347592 -7.648521 -0.187366 -0.260608 1.443401 -18.049314 1.512209 -0.000020 -0.000003 0.000000 0.000000 0.000000 25.548584 -69.062993 16.325351 -49.511987 -9.711627 -2.104021 44.985784 1.394032 0.381268 1.435534 0.819311 28.302624 -3.486228 0.125311 -2.849263 0.000000 0.000000 0.000000 25.548584 -69.062993 16.325351 4.948560 11.226802 0.235869 5.938464 7.371498 0.634044 0.000000 0.000000 0.000000 0.000000 0.000000 0.000000 4.718938 17.582311 2.448578 6.178261 5.120943 -4.209288 -13.759385 18.080984 3.551946 0.000000 0.000000 0.000000 4.718938 17.582311 2.448578 3.616886 3.702311 -12.152767 0.000000 0.000000 0.000000 -50.517650 -32.346656 -45.002388 0.000141 -84.349271 0.000134 0.000000 0.000000 0.000000 4.718938 17.582311 2.448578 -15.231132 11.787433 -3.124293 0.000000 0.000000 0.000000 -92.063771 46.117123 113.129017 0.000008 41.336018 -0.000019 0.000000 0.000000 0.000000 
-4.615491 31.614944 -13.447920 0.000000 0.000000 0.000000 30.195348 -73.087102 19.634075 -69.669398 6.478792 9.516843 60.838052 -6.009893 0.331541 8.777114 -1.489602 -23.541406 -5.510702 -0.786252 6.860068 0.000000 0.000000 0.000000 30.195348 -73.087102 19.634075 -43.268104 -9.737144 0.152511 51.931728 -3.165204 0.250280 -9.360113 -5.052231 30.177009 -1.225576 0.000019 0.000005 0.000000 0.000000 0.000000 30.195348 -73.087102 19.634075 4.664472 12.905592 2.275415 6.002001 7.941444 0.980751 0.000000 0.000000 0.000000 0.000000 0.000000 0.000000 4.701179 18.169859 2.813332 6.590864 4.714449 -4.493883 -12.566632 17.121143 2.048011 0.000000 0.000000 0.000000 4.701179 18.169859 2.813332 3.928013 3.896561 -13.253711 0.000000 0.000000 0.000000 -52.336990 -32.572236 -46.006136 0.000045 -82.029151 0.000071 0.000000 0.000000 0.000000 4.701179 18.169859 2.813332 -15.314906 15.159899 -3.231115 0.000000 0.000000 0.000000 -90.279473 46.659194 110.008495 0.000002 40.043032 -0.000003 0.000000 0.000000 0.000000 
